<?xml version="1.0" standalone="no"?>
<!DOCTYPE svg PUBLIC "-//W3C//DTD SVG 20010904//EN"
 "http://www.w3.org/TR/2001/REC-SVG-20010904/DTD/svg10.dtd">
<svg version="1.0" xmlns="http://www.w3.org/2000/svg"
 width="493.000000pt" height="497.000000pt" viewBox="0 0 493.000000 497.000000"
 preserveAspectRatio="xMidYMid meet">

<g transform="translate(0.000000,497.000000) scale(0.100000,-0.100000)"
fill="#000000" stroke="none">
<path d="M0 2480 l0 -2480 2463 2 2462 3 3 2464 c1 1813 -1 2467 -9 2477 -10
12 -413 14 -2465 14 l-2454 0 0 -2480z m2800 2335 c257 -40 540 -133 757 -251
247 -134 505 -341 680 -546 l40 -47 0 -90 0 -89 -60 76 c-80 103 -283 303
-382 379 -343 260 -749 422 -1159 462 -138 14 -314 14 -447 1 -421 -41 -851
-217 -1191 -488 -96 -76 -273 -254 -346 -347 -30 -38 -58 -73 -61 -77 -3 -4
-6 33 -5 82 l1 90 59 67 c382 436 910 713 1501 788 138 18 468 12 613 -10z
m-318 -1147 c-11 -18 -72 -123 -136 -233 l-116 -200 0 96 0 97 78 136 77 136
58 0 59 0 -20 -32z m162 -201 c38 -67 141 -245 228 -396 88 -150 162 -280 165
-287 4 -12 -23 -14 -173 -12 l-178 3 -88 153 -89 152 27 45 c14 25 29 45 32
45 4 -1 45 -66 91 -146 46 -80 90 -148 96 -150 7 -3 35 -4 62 -2 l50 3 -138
240 c-76 132 -144 248 -151 258 -12 17 -31 -11 -181 -270 l-167 -288 0 98 0
97 137 237 c75 131 150 262 166 291 15 28 32 52 35 52 4 -1 38 -56 76 -123z
m-1023 -1177 c54 -25 72 -112 32 -152 l-22 -21 32 -21 c60 -41 57 -138 -7
-177 -25 -16 -50 -19 -138 -19 l-108 0 0 206 0 206 93 -4 c50 -3 104 -11 118
-18z m356 9 c51 -19 73 -48 73 -98 0 -32 -6 -51 -22 -68 -12 -13 -16 -23 -9
-23 6 0 23 -11 36 -25 19 -19 25 -35 25 -70 0 -94 -34 -115 -185 -115 l-105 0
0 205 0 205 79 0 c44 0 92 -5 108 -11z m270 -54 c21 -35 41 -65 45 -65 4 0 24
29 45 65 l38 65 48 0 c36 0 46 -3 41 -12 -4 -7 -34 -54 -65 -105 l-58 -91 -3
-104 -3 -103 -42 -3 -43 -3 0 102 0 102 -65 102 c-36 56 -65 105 -65 109 0 3
20 6 45 6 44 0 44 0 82 -65z m523 25 l0 -40 -50 0 -50 0 0 -170 0 -170 -40 0
-40 0 0 170 0 170 -50 0 -50 0 0 40 0 40 140 0 140 0 0 -40z m300 5 l0 -34
-72 -3 -73 -3 -3 -47 -3 -48 70 0 71 0 0 -35 0 -34 -67 -3 -68 -3 -3 -47 -3
-48 75 0 76 0 0 -35 0 -35 -115 0 -115 0 0 205 0 205 115 0 115 0 0 -35z m362
21 c19 -8 52 -34 73 -57 l38 -43 -39 -16 -39 -17 -17 27 c-28 47 -104 63 -159
35 -86 -45 -92 -189 -10 -238 54 -32 140 -15 174 33 13 18 17 19 50 7 l37 -12
-25 -38 c-49 -71 -153 -102 -242 -73 -86 29 -133 99 -133 201 0 31 6 70 14 88
17 40 61 86 101 103 40 18 134 17 177 0z m-2117 -329 l25 -67 -28 0 -29 0 0
70 c0 39 1 69 3 67 2 -2 15 -33 29 -70z m457 -400 c12 -19 9 -43 -7 -57 -13
-11 -13 -16 1 -42 17 -33 9 -54 -10 -25 -31 51 -35 54 -36 20 0 -18 -4 -33
-10 -33 -6 0 -10 34 -10 81 l0 82 32 -7 c18 -3 36 -12 40 -19z m168 -57 c0
-64 -3 -80 -15 -80 -12 0 -15 15 -15 73 0 41 3 77 7 80 17 18 23 0 23 -73z
m130 65 c0 -8 -7 -15 -15 -15 -12 0 -15 -14 -15 -65 0 -37 -4 -65 -10 -65 -6
0 -10 28 -10 65 0 51 -3 65 -15 65 -8 0 -15 7 -15 15 0 11 11 15 40 15 29 0
40 -4 40 -15z m302 -2 c55 -64 10 -172 -59 -140 -26 12 -37 38 -35 86 3 61 59
94 94 54z m98 -37 c0 -70 7 -91 26 -75 9 7 14 33 14 71 0 43 3 59 13 56 14 -5
21 -68 12 -116 -4 -22 -14 -37 -32 -45 -22 -10 -28 -8 -44 12 -25 30 -28 151
-4 151 11 0 15 -13 15 -54z m171 44 c21 -12 26 -59 8 -77 -9 -9 -8 -18 5 -37
20 -31 21 -46 2 -46 -7 0 -20 15 -27 33 l-14 32 -5 -30 c-10 -58 -25 -30 -28
53 -3 78 -2 82 18 82 12 0 30 -5 41 -10z m227 -22 c15 -32 3 -63 -28 -73 -13
-4 -20 -15 -20 -31 0 -13 -4 -24 -10 -24 -6 0 -10 34 -10 81 l0 80 27 -3 c19
-2 32 -12 41 -30z m130 -33 c7 -35 15 -71 18 -80 4 -10 0 -15 -10 -15 -9 0
-16 5 -16 10 0 6 -9 10 -20 10 -11 0 -20 -4 -20 -10 0 -5 -6 -10 -14 -10 -12
0 -12 8 -1 53 7 28 16 64 19 80 11 48 32 31 44 -38z m132 50 c0 -8 -6 -12 -14
-9 -27 10 -28 -18 -1 -46 19 -20 26 -36 23 -56 -2 -25 -8 -29 -35 -32 -19 -2
-33 1 -33 7 0 6 11 11 25 11 14 0 25 5 25 11 0 6 -11 24 -25 41 -29 34 -31 50
-9 72 19 20 44 21 44 1z m125 5 c3 -5 -1 -10 -10 -10 -29 0 -29 -30 0 -60 21
-22 26 -35 21 -54 -5 -21 -13 -26 -36 -26 -17 0 -30 5 -30 10 0 6 11 10 25 10
14 0 25 6 25 13 0 8 -11 24 -25 37 -29 27 -33 65 -7 79 22 13 29 13 37 1z m95
-76 c0 -76 -13 -99 -24 -43 -8 41 -8 114 0 122 16 16 24 -10 24 -79z m-1770
27 c0 -58 7 -81 25 -81 18 0 25 23 25 81 0 27 5 49 10 49 13 0 13 -106 0 -131
-6 -11 -21 -19 -35 -19 -14 0 -29 8 -35 19 -13 25 -13 131 0 131 6 0 10 -22
10 -49z m559 -107 c-15 -18 -22 -13 -13 10 3 9 10 13 16 10 5 -3 4 -12 -3 -20z
m2138 -353 l-2 -88 -60 -69 c-193 -222 -443 -412 -720 -549 -178 -88 -306
-136 -464 -175 -457 -115 -929 -93 -1372 65 -129 46 -372 166 -483 240 -190
125 -395 303 -497 432 -51 63 -51 64 -53 139 0 42 2 78 5 80 4 2 28 -24 55
-59 78 -100 301 -316 409 -397 292 -219 606 -355 985 -426 113 -21 505 -30
626 -15 456 59 860 231 1184 506 98 83 274 264 340 348 25 31 46 57 47 57 1 0
1 -40 0 -89z"/>
<path d="M1490 2190 l0 -50 43 0 c50 0 67 13 67 52 0 33 -24 48 -74 48 l-36 0
0 -50z"/>
<path d="M1490 2025 l0 -55 55 0 c47 0 57 3 71 25 32 49 -5 85 -87 85 l-39 0
0 -55z"/>
<path d="M1870 2190 l0 -50 40 0 c31 0 43 5 56 25 15 23 15 27 0 50 -13 20
-25 25 -56 25 l-40 0 0 -50z"/>
<path d="M1870 2025 l0 -55 49 0 c55 0 81 17 81 55 0 33 -36 55 -87 55 l-43 0
0 -55z"/>
<path d="M1720 1534 c0 -31 23 -28 28 4 2 15 -2 22 -12 22 -11 0 -16 -9 -16
-26z"/>
<path d="M2304 1534 c-10 -37 7 -79 31 -79 24 0 41 42 31 79 -5 19 -13 26 -31
26 -18 0 -26 -7 -31 -26z"/>
<path d="M2610 1533 c0 -25 1 -26 16 -11 9 9 13 21 10 27 -13 20 -26 11 -26
-16z"/>
<path d="M2820 1535 c0 -17 5 -25 13 -22 6 2 12 12 12 22 0 10 -6 20 -12 23
-8 2 -13 -6 -13 -23z"/>
<path d="M2966 1501 c-4 -7 -5 -15 -2 -18 9 -9 19 4 14 18 -4 11 -6 11 -12 0z"/>
</g>
</svg>
